<svg xmlns="http://www.w3.org/2000/svg" version="1.1" xmlns:xlink="http://www.w3.org/1999/xlink" xmlns:svgjs="http://svgjs.dev/svgjs" width="1440" height="700" preserveAspectRatio="none" viewBox="0 0 1440 700"><g mask="url(&quot;#SvgjsMask1018&quot;)" fill="none"><rect width="1440" height="700" x="0" y="0" fill="rgba(29, 32, 37, 1)"></rect><path d="M764.97-68.03C638.98-23.67 689.44 347.99 432.07 349.88 174.7 351.77-62.08 183.17-233.74 181.88" stroke="rgba(209, 103, 203, 1)" stroke-width="2"></path><path d="M1318.7-83.12C1153.68-40.59 1104.81 402.37 849.09 410.97 593.38 419.57 614.29 323.47 379.49 323.47 144.68 323.47 29.3 410.6-90.12 410.97" stroke="rgba(209, 103, 203, 1)" stroke-width="2"></path><path d="M877.46-42.65C697.26-1.73 624.61 472.85 350.65 475.8 76.69 478.75-33.78 262.99-176.16 258.8" stroke="rgba(209, 103, 203, 1)" stroke-width="2"></path><path d="M675.38-1.65C499.25 58.43 464.17 566.16 206.25 576.3-51.68 586.44-140 431.01-262.89 429.3" stroke="rgba(209, 103, 203, 1)" stroke-width="2"></path><path d="M817.05-19.65C681.48-15.78 594.71 171.41 314.58 184.86 34.45 198.31-42.73 468.32-187.89 478.86" stroke="rgba(209, 103, 203, 1)" stroke-width="2"></path></g><defs><mask id="SvgjsMask1018"><rect width="1440" height="700" fill="#ffffff"></rect></mask></defs></svg>