<svg xmlns="http://www.w3.org/2000/svg" version="1.1" xmlns:xlink="http://www.w3.org/1999/xlink" xmlns:svgjs="http://svgjs.dev/svgjs" width="1440" height="700" preserveAspectRatio="none" viewBox="0 0 1440 700"><g mask="url(&quot;#SvgjsMask1024&quot;)" fill="none"><rect width="1440" height="700" x="0" y="0" fill="rgba(29, 32, 37, 1)"></rect><path d="M-146.96 356.31C-3.54 352.58 166.87 137.64 387.11 146.31 607.34 154.98 528.46 626.69 654.14 724.4" stroke="rgba(209, 103, 203, 1)" stroke-width="2"></path><path d="M-62.5 469.42C97.77 457.27 207.73 139.19 489.87 140.42 772.01 141.65 851.08 654.23 1042.24 700.14" stroke="rgba(209, 103, 203, 1)" stroke-width="2"></path><path d="M-75.57 141.22C31.38 144.25 66.3 260.94 320.97 302.22 575.63 343.5 567.24 748.31 717.5 801.48" stroke="rgba(209, 103, 203, 1)" stroke-width="2"></path><path d="M-72.67 521.61C110.61 516.58 261.81 247.53 608.01 248.61 954.21 249.69 1075.57 745.73 1288.69 775.26" stroke="rgba(209, 103, 203, 1)" stroke-width="2"></path><path d="M-194.49 129.7C-29.44 131.49 86.6 294.89 440.15 311.7 793.71 328.51 882.17 735.51 1074.8 756.98" stroke="rgba(209, 103, 203, 1)" stroke-width="2"></path></g><defs><mask id="SvgjsMask1024"><rect width="1440" height="700" fill="#ffffff"></rect></mask></defs></svg>